<svg xmlns="http://www.w3.org/2000/svg" xmlns:xlink="http://www.w3.org/1999/xlink" height="23" width="40" viewBox="0 0 40 23" id="Слой_1"><style id="style2">.st0{clip-path:url(#SVGID_2_)}.st0,.st1{fill:#080d0d}</style><g transform="matrix(.95465 0 0 .9237 -.095 .185)" id="g12"><defs id="defs5"><path id="SVGID_1_" d="M.1-.2H42v24.9H.1z"/></defs><clipPath id="SVGID_2_"><use height="100%" width="100%" id="use7" xlink:href="#SVGID_1_" overflow="visible"/></clipPath><path id="path10" clip-path="url(#SVGID_2_)" d="M28.7 21.4c.4 1.9 2.1 3.3 4.1 3.3 2 0 3.7-1.4 4.1-3.3h4.3c.5 0 .8-.4.8-.8v-8.1c0-.3-.2-.6-.4-.7l-2.4-1.4-1.4-5.9c-.4-1.6-1.8-2.7-3.4-2.7h-7V.6c0-.5-.4-.8-.8-.8H.9C.4-.2.1.2.1.6v19.9c0 .5.4.8.8.8h2.7c.4 1.9 2.1 3.3 4.1 3.3 2 0 3.7-1.4 4.1-3.3l16.9.1m7.5-16.6l1.2 5.2h-5.1V3.4h2.1c.8 0 1.6.6 1.8 1.4zM1.7 1.5h24.1v12.3H1.7zm0 13.9h24.1v1.3h-7.5c-.5 0-.8.4-.8.8 0 .5.4.8.8.8h7.5v1.3h-14c-.4-1.9-2.1-3.3-4.1-3.3-2 0-3.7 1.5-4.1 3.4H1.7zm6 7.7c-1.4 0-2.5-1.1-2.5-2.5s1.1-2.5 2.5-2.5 2.5 1.1 2.5 2.5c0 1.3-1.1 2.5-2.5 2.5zm25.1 0c-1.3 0-2.4-1-2.5-2.3v-.2-.2c.1-1.3 1.2-2.3 2.5-2.3 1.4 0 2.5 1.1 2.5 2.5 0 1.3-1.1 2.5-2.5 2.5zM27.5 3.4h3.2v7.4c0 .5.4.8.8.8h6.7l2.1 1.2v.3h-2.4c-.5 0-.8.4-.8.8v2.6c0 .5.4.8.8.8h2.4v2.3h-3.4c-.4-1.9-2.1-3.3-4.1-3.3-2 0-3.7 1.4-4.1 3.3h-1.2zm11.2 11.5h1.6v.9h-1.6z" class="st0"/></g><path id="path14" d="M13.938 17.18h.668a.74.74 0 0 0 .764-.738c0-.462-.382-.74-.764-.74h-.668a.74.74 0 0 0-.764.74c0 .37.382.739.764.739" class="st1" stroke-width=".939"/></svg>