<svg xmlns="http://www.w3.org/2000/svg" xmlns:xlink="http://www.w3.org/1999/xlink" height="40" width="32" viewBox="0 0 32 40" id="Слой_1"><style id="style2">.st0{clip-path:url(#SVGID_2_)}.st0,.st1{fill:#000b10}</style><g transform="matrix(1.02564 0 0 1.04439 -.513 -.94)" id="g12"><defs id="defs5"><path id="SVGID_1_" d="M.5.8h30.7v38.3H.5z"/></defs><clipPath id="SVGID_2_"><use height="100%" width="100%" id="use7" xlink:href="#SVGID_1_" overflow="visible"/></clipPath><path id="path10" clip-path="url(#SVGID_2_)" d="M7.5 39.2c5.5 0 7-5.5 7-5.6v-9.1c0-.7-.6-1.3-1.3-1.3h-2.7c-.2-.5-.6-1-1.2-1.2V4.7h1.9c1.1 0 1.9-.9 1.9-1.9 0-1.1-.9-1.9-1.9-1.9H3.7c-1.1 0-1.9.9-1.9 1.9 0 1.1.9 1.9 1.9 1.9h1.9V22c-.5.2-1 .6-1.2 1.2H1.8c-.7 0-1.3.6-1.3 1.3v9.1s1.5 5.6 7 5.6M3 2.7c0-.4.3-.6.6-.6h7.7c.4 0 .6.3.6.6 0 .4-.3.6-.6.6H3.7c-.4.1-.7-.2-.7-.6zm3.9 2h1.3V22H6.9zm-.7 18.5h2.6c.4 0 .6.3.6.6v1.3c0 1.1-.9 1.9-1.9 1.9-1.1 0-1.9-.9-1.9-1.9v-1.3c0-.3.3-.6.6-.6zm-4.4 1.3h2.6v.6c0 1.5 1.1 2.8 2.6 3.1v2.6c0 .4.3.6.6.6.4 0 .6-.3.6-.6v-2.6c1.5-.3 2.6-1.6 2.6-3.1v-.6h2.6v8.9c-.2.6-1.5 4.6-5.8 4.6S2 34 1.8 33.4z" class="st0"/></g><path id="path14" d="M18.564 39.791a.776.776 0 0 0 .513.209c.205 0 .308-.104.513-.209l1.333-1.358a.805.805 0 0 0 .205-.522V27.258h.718l.616.627v10.026c0 .21.102.314.205.522L24 39.791a.776.776 0 0 0 .513.209c.205 0 .308-.104.513-.209l1.333-1.358a.805.805 0 0 0 .205-.522V27.885l.615-.627h.718v10.653c0 .21.103.314.206.522l1.333 1.358a.776.776 0 0 0 .513.209c.205 0 .307-.104.513-.209l1.333-1.358a.805.805 0 0 0 .205-.522V24.648c0-.732-.615-1.358-1.333-1.358h-2.77c-.205-.522-.615-1.045-1.23-1.253V3.969h1.538c1.128 0 1.949-.94 1.949-1.985A1.965 1.965 0 0 0 28.205 0h-7.897c-1.129 0-1.949.94-1.949 1.984 0 1.15.923 1.985 1.949 1.985h1.948v18.068c-.512.208-1.025.626-1.23 1.253h-2.77c-.718 0-1.333.626-1.333 1.358v13.368c0 .209.103.313.205.522l1.436 1.253m6.36-2.089l-.616.627-.718-.627v-9.086c.41.105.923.105 1.333 0zm5.23 0l-.616.627-.717-.627v-11.07c0-.209-.103-.313-.206-.522a.776.776 0 0 0-.512-.21h-.718c0-.208.102-.417.102-.626v-.626h2.667zM19.692 1.88c0-.418.308-.627.616-.627h7.897c.41 0 .616.314.616.627 0 .418-.308.627-.616.627h-7.897c-.41.104-.616-.21-.616-.627zm3.898 2.089h1.333v18.068H23.59zm-.616 19.32h2.667c.41 0 .615.314.615.627v1.358a1.965 1.965 0 0 1-1.948 1.984c-1.129 0-1.949-.94-1.949-1.984v-1.358c-.103-.313.205-.626.615-.626zm-4.615 1.359h2.667v.626c0 .209 0 .418.102.627h-.718c-.205 0-.307.104-.513.209a.805.805 0 0 0-.205.522v11.07l-.718.627-.615-.627z" class="st1" stroke-width="1.035"/></svg>