<svg xmlns="http://www.w3.org/2000/svg" xmlns:xlink="http://www.w3.org/1999/xlink" height="41" width="27" viewBox="0 0 27 41" id="Слой_1"><style id="style2">.st0{clip-path:url(#SVGID_2_)}</style><g transform="matrix(.97473 0 0 .98321 -.195 0)" id="g12"><defs id="defs5"><path id="SVGID_1_" d="M.2-.1h27.7V42H.2z"/></defs><clipPath id="SVGID_2_"><use height="100%" width="100%" id="use7" xlink:href="#SVGID_1_" overflow="visible"/></clipPath><path id="path10" clip-path="url(#SVGID_2_)" d="M4.9 1.4h18.3v3.1H4.9zm2.2 4.4h13.8v8.9H7.1zm13.8 12.7c0 .1-.1.2-.2.2H7.3c-.1 0-.2-.1-.2-.2v-2.4h13.8zM17 23.8c.3.3.3.7 0 .9l-1.4 1.4v5.4l.8-.2c.1 0 .4-.1.6.1.3.3.3.7 0 .9l-1.4 1.4v6c0 .2-.2.6-.3.7h-2.5c-.1-.1-.3-.5-.3-.7v-2.4l-.8.2c-.1 0-.4.1-.6-.1-.3-.3-.3-.7 0-.9l1.4-1.4v-5.4l-.9.3c-.1 0-.4.1-.6-.2-.3-.3-.3-.7 0-.9l1.4-1.4v-6.9h3.1v3.3l.8-.2c.2-.1.5-.1.7.1zM.2 0v1.3h3.3v4.5h2.2v12.7c0 .9.7 1.6 1.6 1.6h3.8v6.8l-1 1c-.8.8-.8 2.1 0 2.8.3.3.6.5 1 .5v3.3l-1 1c-.4.4-.6.9-.6 1.4 0 .5.2 1 .6 1.4.3.3.6.5 1 .5v.9c0 .7.5 2 1.6 2h2.7c1 0 1.6-1.3 1.6-2v-5.4l1-1c.8-.8.8-2.1 0-2.8-.3-.3-.6-.5-1-.5v-3.3l1-1c.8-.8.8-2.1 0-2.8-.3-.3-.6-.5-1-.5v-2.3h3.8c.9 0 1.6-.7 1.6-1.6V5.8h2.2V1.4h3.3V0z" class="st0"/></g><path id="rect14" stroke-width=".979" d="M15.596 8.357h2.632v1.278h-2.632z"/><path id="rect16" stroke-width=".979" d="M15.596 11.012h2.632v1.278h-2.632z"/><path id="rect18" stroke-width=".979" d="M12.184 11.012h2.632v1.278h-2.632z"/></svg>