<svg xmlns="http://www.w3.org/2000/svg" xmlns:xlink="http://www.w3.org/1999/xlink" height="27" width="33" viewBox="0 0 33 27" id="Слой_1"><style id="style2">.st0{clip-path:url(#SVGID_2_)}</style><g transform="matrix(1.01538 0 0 1.00746 -.71 -.806)" id="g12"><defs id="defs5"><path id="SVGID_1_" d="M.7.8h32.6v27.4H.7z"/></defs><clipPath id="SVGID_2_"><use height="100%" width="100%" id="use7" xlink:href="#SVGID_1_" overflow="visible"/></clipPath><path id="path10" clip-path="url(#SVGID_2_)" d="M20.5 20.8h5.2v3.1h-5.2zm0-5.3h5.2v3.7h-5.2zm0-4.7h5.2V14h-5.2zM8 20.8h5.2v3.1H8zm0-5.3h5.2v3.7H8zm0-4.7h5.2V14H8zM29.3.8l-3.6 4.3v4.2h-5.2V4.7l-3.7-4L13.2 5v4.2H8V4.7L4.3.7.7 5.1v22.5h1.6v-22l2.1-2.5 2.1 2.2v22.2H8v-2.1h5.2v2.1h1.6V5.6l2.1-2.5L19 5.4v22.2h1.6v-2.1h5.2v2.1h1.6v-22l2.1-2.5 2.1 2.2v22.2h1.6V4.7z" class="st0"/></g></svg>