<svg xmlns="http://www.w3.org/2000/svg" height="30" width="39" viewBox="190 384 39 30.000004"><path d="M228.277 398.763a.713.723 0 0 0 .722-.714v-6.669a.713.723 0 0 0-.722-.712h-2.166v-2.143a.694.703 0 0 0-.18-.47l-3.37-3.81a.731.741 0 0 0-1.087 0l-3.37 3.81a.694.703 0 0 0-.179.47v2.143h-4.333v-2.143a.694.703 0 0 0-.177-.47l-3.372-3.81a.731.741 0 0 0-1.087 0l-3.371 3.81a.694.703 0 0 0-.178.47v2.143h-4.333v-2.143a.694.703 0 0 0-.178-.47l-3.37-3.81a.731.741 0 0 0-1.088 0l-3.37 3.81a.694.703 0 0 0-.18.47v2.143h-2.166a.713.723 0 0 0-.722.714v6.667c0 .395.323.714.722.714h2.167v2.38h-2.167a.713.723 0 0 0-.722.715v6.667c0 .394.323.714.722.714h2.167v3.332h-1.204a.713.723 0 0 0-.722.714c0 .396.322.715.722.715h35.63a.713.723 0 0 0 .722-.715.713.723 0 0 0-.722-.714h-1.204v-3.332h2.167a.713.723 0 0 0 .722-.715v-6.667a.713.723 0 0 0-.722-.715h-2.167v-2.379zm-.723-6.668v5.239h-1.443v-5.237zm-13.962 10.477h4.333v5.237h-4.333zm4.333-1.43h-4.333v-2.379h4.333zm-4.333 8.097h4.333v3.332h-4.333zm4.333-17.142v5.237h-4.333v-5.237zm-16.851 10.475h4.333v5.237h-4.333zm4.333-1.43h-4.333v-2.379h4.333zm-4.333 8.097h4.333v3.332h-4.333zm4.333-17.142v5.237h-4.333v-5.237zm-13.962 5.237v-5.237h1.444v5.237zm0 10.475v-5.237h1.444v5.237zm2.888 4.761v-23.778l2.65-2.992 2.647 2.992v23.779zm12.519 0v-23.778l2.648-2.992 2.649 2.992v23.779zm12.517 0v-23.778l2.65-2.992 2.647 2.992v23.779zm8.185-9.998v5.237h-1.443v-5.237z" stroke-width=".884"/><path d="M196.98 393.156a1.191 1.209 0 0 0-1.203 1.191 1.2 1.2 0 0 0 1.204 1.191 1.191 1.209 0 0 0 1.205-1.191 1.151 1.167 0 0 0-.352-.842 1.213 1.23 0 0 0-.853-.35zm0 11.428a1.191 1.209 0 0 0-1.203 1.191 1.2 1.2 0 0 0 1.204 1.192 1.189 1.205 0 0 0 1.204-1.192 1.151 1.167 0 0 0-.353-.841 1.206 1.223 0 0 0-.851-.35zm12.52-11.428a1.191 1.209 0 0 0-1.204 1.191c0 .656.539 1.191 1.204 1.191a1.191 1.209 0 0 0 1.203-1.191 1.151 1.167 0 0 0-.353-.842 1.21 1.226 0 0 0-.85-.35zm0 11.428a1.191 1.209 0 0 0-1.204 1.191c0 .657.539 1.192 1.204 1.192a1.189 1.205 0 0 0 1.201-1.192 1.151 1.167 0 0 0-.351-.841 1.206 1.223 0 0 0-.85-.35zm12.518-11.428a1.191 1.209 0 0 0-1.205 1.191 1.2 1.2 0 0 0 1.205 1.191 1.191 1.209 0 0 0 1.204-1.191 1.151 1.167 0 0 0-.353-.842 1.21 1.226 0 0 0-.85-.35zm0 11.428a1.191 1.209 0 0 0-1.205 1.191 1.2 1.2 0 0 0 1.205 1.192 1.191 1.209 0 0 0 1.204-1.192 1.151 1.167 0 0 0-.353-.841 1.21 1.226 0 0 0-.85-.35z" stroke-width=".884"/></svg>