<svg xmlns="http://www.w3.org/2000/svg" xmlns:xlink="http://www.w3.org/1999/xlink" height="37" width="32" viewBox="0 0 32 37" id="Слой_1"><style id="style2">.st0{clip-path:url(#SVGID_2_)}.st0,.st1{fill:#000b10}</style><g transform="matrix(1.00313 0 0 .98404 -.803 -.394)" id="g12"><defs id="defs5"><path id="SVGID_1_" d="M.8.4h31.9V38H.8z"/></defs><clipPath id="SVGID_2_"><use height="100%" width="100%" id="use7" xlink:href="#SVGID_1_" overflow="visible"/></clipPath><path id="path10" clip-path="url(#SVGID_2_)" d="M32.7 33.3l-5.8-10c2.3-2.4 3.6-5.7 3.6-9.3 0-3.8-1.5-7.2-4-9.7-2.5-2.5-5.9-4-9.7-4C13 .3 9.6 2 7.1 4.4c-2.5 2.5-4 5.9-4 9.7 0 3.6 1.4 6.8 3.6 9.3l-5.8 10c-.1.2-.1.4-.1.6.1.4.5.5.9.4l4.6-1.8.7 4.9c0 .2.1.4.3.5.3.2.7.1.9-.3L14 27.6c.8.2 1.7.3 2.6.3.9 0 1.8-.1 2.6-.3L25 37.7c.2.3.6.4.9.3.2-.1.3-.3.3-.5l.7-4.9 4.6 1.8c.4.1.7 0 .9-.4.4-.3.3-.5.3-.7m-24.5 2l-.6-3.8c-.1-.4-.4-.6-.8-.6-.1 0-.1 0-.2.1L3 32.4l4.6-8c1.4 1.3 3.2 2.3 5.1 2.9zm8.6-8.8c-3.4 0-6.5-1.4-8.7-3.6-2.2-2.2-3.6-5.3-3.6-8.7 0-3.4 1.4-6.5 3.6-8.7 2.2-2.3 5.3-3.7 8.7-3.7 3.4 0 6.5 1.4 8.7 3.6 2.2 2.2 3.6 5.3 3.6 8.7 0 3.4-1.4 6.5-3.6 8.7-2.2 2.3-5.3 3.7-8.7 3.7zM27 30.9c-.1 0-.1-.1-.2-.1-.4-.1-.7.2-.8.6l-.6 3.8-4.6-8.1c1.9-.6 3.7-1.6 5.1-2.9l4.6 8z" class="st0"/></g><path id="path14" d="M22.37 11.12c-.2-.197-.401-.394-.602-.492-.2-.099-.502-.197-.702-.099h-2.709l-.802-2.558c-.1-.394-.401-.69-.702-.886-.201-.098-.502-.197-.703-.197-.2 0-.501.099-.702.197-.401.197-.602.492-.702.886l-.802 2.558h-2.709c-.3 0-.501 0-.702.099-.2.098-.401.295-.602.492-.3.393-.3.689-.3 1.082.1.394.3.689.601.984l2.307 1.575-.903 2.558v.099c-.1.196-.1.393 0 .59 0 .197.1.492.301.59.301.394.602.492 1.003.59.402.1.803 0 1.104-.294l2.307-1.575 2.307 1.575c.402.295.703.295 1.104.295.401-.099.702-.295 1.003-.59.2-.197.2-.394.3-.591v-.59-.099l-.902-2.558 2.307-1.575c.401-.295.502-.59.602-.984-.3-.295-.401-.689-.702-1.082m-1.104 1.082l-2.608 1.87c-.2.197-.4.492-.3.689l1.003 3.05v.197l-.1.098h-.101l-2.608-1.87c-.1-.098-.301-.098-.402-.098-.1 0-.3 0-.4.099l-2.609 1.87h-.1s-.1 0-.1-.099v-.098-.099l1.003-3.05c.1-.296 0-.59-.301-.69l-2.508-1.869-.1-.098v-.099h3.21c.3 0 .501-.196.601-.492l1.004-3.05s0-.099.1-.099h.2l.1.099 1.004 3.05c.1.296.401.492.602.492H21.366v.099c-.1 0-.1 0-.1.098z" class="st1" stroke-width=".994"/><path id="path16" d="M23.674 6.101c-1.906-1.87-4.614-3.05-7.624-3.05S10.433 4.23 8.426 6.1c-2.006 1.87-3.11 4.527-3.11 7.479s1.204 5.51 3.11 7.479c1.906 1.968 4.615 3.05 7.624 3.05 3.01 0 5.618-1.18 7.624-3.05 2.006-1.87 3.11-4.527 3.11-7.48 0-2.951-1.204-5.608-3.11-7.478m-1.003 13.875c-1.705 1.673-4.113 2.657-6.62 2.657-2.509 0-4.916-1.082-6.622-2.657-1.705-1.673-2.708-3.936-2.708-6.495 0-2.558 1.103-4.821 2.708-6.494 1.706-1.673 4.013-2.756 6.621-2.756 2.608 0 4.916 1.083 6.62 2.657 1.706 1.673 2.71 3.936 2.71 6.495 0 2.558-1.004 4.92-2.71 6.593z" class="st1" stroke-width=".994"/></svg>